<?xml version="1.0" encoding="utf-8"?>
<!-- Generator: Adobe Illustrator 19.0.0, SVG Export Plug-In . SVG Version: 6.00 Build 0)  -->
<svg version="1.0" id="图层_1" xmlns="http://www.w3.org/2000/svg" xmlns:xlink="http://www.w3.org/1999/xlink" x="0px" y="0px"
	 viewBox="0 0 960 560" style="enable-background:new 0 0 960 560;" xml:space="preserve">
<style type="text/css">
	.st0{clip-path:url(#SVGID_2_);fill:#1D99D7;}
</style>
<g>
	<g>
		<defs>
			<rect id="SVGID_1_" x="118" y="-130" width="722.9" height="820.7"/>
		</defs>
		<clipPath id="SVGID_2_">
			<use xlink:href="#SVGID_1_"  style="overflow:visible;"/>
		</clipPath>
		<path class="st0" d="M744.3-129.5c25.6,0,50.1,10.2,68.1,28.2c18.1,18.1,28.2,42.6,28.2,68.1v626.4c0,53.2-43.1,96.4-96.4,96.4
			H214.3c-25.6,0-50.1-10.2-68.1-28.2c-18.1-18.1-28.2-42.6-28.2-68.1V-33.1c0-53.2,43.1-96.4,96.4-96.4H744.3z M670.5,490.9H312.1
			c-14.1,0-25.6,10.8-25.6,24.1c0,13.3,11.5,24.1,25.6,24.1h358.4c14.1,0,25.6-10.8,25.6-24.1C696.1,501.7,684.7,490.9,670.5,490.9
			L670.5,490.9z M670.5,400.6H312.1c-14.1,0-25.6,10.8-25.6,24.1c0,13.3,11.5,24.1,25.6,24.1h358.4c14.1,0,25.6-10.8,25.6-24.1
			C696.1,411.4,684.7,400.6,670.5,400.6L670.5,400.6z M489.9-2c-1.9-4.2-6-6.9-10.7-6.9c-4.6,0-8.8,2.7-10.6,6.9l-35.5,75.3
			c-1.7,3.6-5,6.1-9,6.7l-79.3,12.1c-9.8,1.4-13.6,14-6.6,21.2l57.4,58.6c2.8,2.8,4.1,6.9,3.4,10.9l-13.5,82.7
			c-1.6,10.1,8.5,17.8,17.3,13.1l76.4-42.1l76.4,42.1c8.7,4.8,19-3,17.3-13.1l-13.5-82.7c-0.7-4,0.6-8,3.4-10.9l57.4-58.6
			c7-7.1,3.2-19.8-6.6-21.2L534.4,80c-3.9-0.6-7.3-3.2-9-6.8L489.9-2z M489.9-2"/>
	</g>
</g>
</svg>
